<svg width="119" height="125" viewBox="0 0 119 125" fill="none" xmlns="http://www.w3.org/2000/svg">
<path d="M103.957 39.6209C101.589 29.5005 88.9316 24.3427 82.4886 22.3433C79.8791 15.2801 72.4922 9.5039 66.0508 5.60421C56.9022 0.0660041 50.5915 -1.37671 47.295 1.3172C42.2566 5.43432 46.0107 17.5007 47.1117 20.6703C46.5401 21.2043 45.9607 21.7666 45.3867 22.3511C40.4049 22.5306 35.1204 23.7126 30.4416 25.2461C22.432 27.8711 15.2539 32.2511 14.697 39.7475C5.25747 43.1923 0.256709 47.4809 0.227593 52.1635C0.221182 52.2469 0.223586 51.317 0.223586 83.591C0.223586 99.2555 9.68632 113.457 24.3173 119.389C33.4937 123.112 45.3309 125 59.5002 125C73.164 125 84.6934 123.257 93.7686 119.818C108.844 114.11 118.777 99.7139 118.777 83.6525V52.2044C118.777 47.5127 113.515 43.0499 103.957 39.6209ZM117.708 83.6525C117.708 99.1791 107.936 113.311 93.3901 118.819C84.4362 122.211 73.0339 123.932 59.5 123.932C45.469 123.932 33.7669 122.07 24.7188 118.398C10.4874 112.629 1.2918 98.9662 1.2918 83.591V78.9132C8.89004 86.8403 32.313 92.2805 59.508 92.2805C86.6813 92.2805 110.099 86.8462 117.708 78.9285V83.6525H117.708ZM117.708 77.2996C111.433 85.3693 87.0331 91.212 59.5083 91.212C31.958 91.212 7.55176 85.3618 1.29207 77.2814V55.8447C3.51851 59.5975 9.18868 63.0166 17.8052 65.7132C40.8601 72.9284 78.13 72.9316 101.197 65.7132C109.811 63.0177 115.48 59.6002 117.709 55.8493V77.2996H117.708ZM100.877 64.6936C78.028 71.8439 40.9829 71.8474 18.1241 64.6936C7.42862 61.3463 1.29474 56.7943 1.29474 52.2044C1.29474 48.1164 6.03639 44.1147 14.6668 40.8967C14.8097 49.7541 22.7103 55.1318 31.0108 58.1529C31.2889 58.2542 31.595 58.1099 31.6954 57.8337C31.7964 57.5564 31.6535 57.2498 31.3762 57.1491C24.4698 54.6352 16.1506 49.8393 15.7401 41.2672C15.3669 33.4526 22.608 28.9209 30.8609 26.2334C39.4686 23.4302 44.3062 23.4628 44.3329 23.4585C37.4364 30.9368 35.644 38.1095 45.3685 41.2298C45.6493 41.3198 45.9503 41.1654 46.0403 40.8844C46.1303 40.6034 45.9757 40.3026 45.6949 40.2126C42.2616 39.111 40.2775 37.4524 39.7977 35.2826C38.7749 30.6582 44.5565 24.4851 48.0942 21.2166C48.5168 20.794 50.5637 19.0104 51.7551 18.1049C51.9904 17.9267 52.0366 17.5918 51.8587 17.3564C51.6806 17.1214 51.3459 17.0749 51.1103 17.2528C51.0496 17.2987 49.741 18.2932 47.9727 19.8829C46.1218 14.3756 44.2645 5.17388 47.9713 2.145C50.8803 -0.232102 56.7772 1.23946 65.4979 6.51856C77.0089 13.4875 83.1233 21.5123 82.273 28.5357C81.6475 33.7021 77.2555 37.9279 70.2227 40.1298C69.9412 40.2179 69.7844 40.5176 69.8725 40.7992C69.9607 41.0807 70.2601 41.2378 70.5419 41.1494C79.2362 38.4274 85.2846 32.1426 82.8928 23.5929C94.8541 27.4648 105.856 34.9874 102.732 47.1163C101.525 51.8032 95.3737 55.8479 85.4098 58.5052C85.1248 58.5814 84.9552 58.8741 85.0313 59.1592C85.1075 59.4442 85.4002 59.6138 85.6852 59.5377C96.038 56.7764 102.46 52.4595 103.767 47.3826C104.378 45.0119 104.479 42.836 104.188 40.8403C112.917 44.0687 117.709 48.0881 117.709 52.2044C117.708 56.7941 111.574 61.3463 100.877 64.6936Z" fill="black"/>
</svg>
