<svg width="42" height="125" viewBox="0 0 42 125" fill="none" xmlns="http://www.w3.org/2000/svg">
<path d="M26.8251 76.3158V32.3743C31.6564 26.2985 32.404 12.6079 31.357 5.07389C29.9906 -4.75761 13.0404 0.140248 10.8391 16.0031C10.8359 16.0258 10.8343 16.0488 10.834 16.072C10.8297 16.5528 10.7889 27.575 15.2976 32.7912V76.3449C10.2114 76.9245 0.260807 79.2359 0.8062 84.3044C0.812343 84.4027 0.702575 83.3578 3.98669 114.162C4.52327 119.21 8.3696 123.352 13.3404 124.233C18.5478 125.152 23.8252 125.284 28.957 124.418C33.9617 123.576 37.8371 119.43 38.3817 114.335C41.3915 86.0738 41.5675 84.4166 41.5732 84.3717C42.2425 79.2009 32.0224 76.8788 26.8251 76.3158ZM16.3659 33.8379C17.6867 34.9231 19.2198 35.4738 20.9358 35.4738C22.7344 35.4738 24.3511 34.8197 25.7567 33.5321V82.094C21.0344 84.7496 17.2863 82.7152 16.3659 82.1215V33.8379ZM30.2988 5.22106C31.5638 14.3229 30.067 34.4055 20.9358 34.4055C19.2339 34.4055 17.7388 33.7679 16.4917 32.5107C11.9812 27.9625 11.9021 16.8103 11.9021 16.1145C13.9194 1.75052 29.1154 -3.2945 30.2988 5.22106ZM15.2976 77.4199V82.4019C15.2976 82.5691 15.3758 82.7267 15.5091 82.8277C15.5417 82.8525 17.7356 84.4729 21.0034 84.4729C22.6342 84.4729 24.5335 84.0688 26.5639 82.8611C26.7257 82.7649 26.8251 82.5902 26.8251 82.4019V77.39C34.8025 78.2778 40.532 81.0016 40.532 83.951C40.532 87.6732 31.6754 90.8179 21.1922 90.8179C10.709 90.8179 1.85238 87.6732 1.85238 83.951C1.85238 81.047 7.47165 78.3361 15.2976 77.4199ZM37.3192 114.222C36.8254 118.842 33.3137 122.602 28.7794 123.365C23.9579 124.178 18.8261 124.116 13.5265 123.181C9.02182 122.383 5.5358 118.627 5.04916 114.049L2.15046 86.8543C8.73978 93.5555 33.6388 93.5643 40.235 86.8532L37.3192 114.222Z" fill="black"/>
</svg>
