<svg width="63" height="125" viewBox="0 0 63 125" fill="none" xmlns="http://www.w3.org/2000/svg">
<path d="M51.7833 21.9549C51.7833 21.0735 51.7836 7.08317 51.7836 7.97604C51.7836 3.50366 42.7709 0 31.2656 0C19.76 0 10.7474 3.50366 10.7474 7.97631C10.7474 8.99124 10.7479 3.63346 10.7479 21.9551C4.06941 24.2054 0.395615 27.353 0.395615 30.8409C0.395615 30.8839 0.572693 32.8601 8.00174 116.634C8.01563 116.792 8.09923 116.935 8.22983 117.026C18.0616 123.836 29.4163 126.891 41.0007 123.748C49.1957 121.525 54.1465 117.17 54.3532 116.985C54.4547 116.895 54.5177 116.769 54.5297 116.633C61.3725 39.4756 62.1359 30.897 62.1359 30.8406C62.1356 27.3527 58.4618 24.2054 51.7833 21.9549ZM31.2656 1.06835C41.8065 1.06835 50.7117 4.23067 50.7152 7.97417C50.7157 8.67314 50.7152 3.79478 50.7152 26.7168C50.7152 30.4608 41.8084 33.6237 31.2659 33.6237C20.7234 33.6237 11.8166 30.4606 11.8166 26.7168C11.8166 26.4478 11.8168 7.6769 11.8163 7.97284C11.8216 4.22987 20.7261 1.06835 31.2656 1.06835ZM53.4846 116.322C52.5845 117.071 47.8835 120.774 40.7208 122.717C33.4162 124.699 22.0073 125.181 9.04338 116.289C8.94162 115.143 1.56866 32.0075 1.46423 30.8246C1.47679 27.9352 4.84743 25.1343 10.7474 23.0839V26.7168C10.7474 31.1889 19.7597 34.692 31.2651 34.692C42.7704 34.692 51.7828 31.1889 51.7828 26.7168V23.0839C57.6827 25.1343 61.0534 27.935 61.0659 30.8243L53.4846 116.322Z" fill="black"/>
</svg>
