<svg width="125" height="111" viewBox="0 0 125 111" fill="none" xmlns="http://www.w3.org/2000/svg">
<path d="M124.406 42.2844L105.63 3.5218C104.496 1.17914 101.91 -0.164451 99.3426 0.2534L14.308 14.0616C13.182 14.2457 12.1384 14.7461 11.2901 15.5085L5.66903 20.5688C3.41291 22.6003 3.09723 25.9402 4.75569 28.3438L25.6968 58.7097C26.8665 60.4053 26.8376 62.652 25.6237 64.3216L1.13845 97.9346C0.00378221 99.4871 -0.30354 101.5 0.310835 103.326L1.48055 106.787C2.30735 109.239 4.69504 110.923 7.34044 110.818L94.0674 107.275C96.3314 107.183 98.3131 105.84 99.2391 103.77L124.483 47.2902C125.198 45.6894 125.17 43.8649 124.406 42.2844ZM123.498 46.85C123.498 46.8769 123.223 47.4663 98.2543 103.33C97.497 105.023 95.8758 106.122 94.0232 106.198L7.2965 109.74C5.15683 109.827 3.18619 108.471 2.50199 106.443L1.33228 102.982C0.815222 101.445 1.10691 99.8047 2.0092 98.5702C28.2435 62.5596 23.5482 69.0061 26.4955 64.9556C27.1439 64.0638 27.5251 63.03 27.6116 61.9439L115.254 45.4983L93.9405 93.3646C93.1856 95.06 91.5644 96.1615 89.7094 96.24L23.9669 98.9703C23.6692 98.9824 23.4382 99.234 23.4503 99.5313C23.463 99.8332 23.7213 100.063 24.0116 100.048L89.7549 97.317C92.0221 97.2215 94.0038 95.875 94.9263 93.803C117.621 42.8338 116.682 44.9861 116.699 44.8384C116.711 44.7254 116.695 44.6448 116.65 44.5505C116.613 44.472 117.362 45.7388 97.2213 11.806C95.9658 9.68902 93.5854 8.58023 91.1573 8.98002L26.998 19.5538C26.7042 19.6021 26.5052 19.8795 26.5538 20.1733C26.602 20.4671 26.8794 20.6653 27.1733 20.6176L91.332 10.0438C93.2883 9.72271 95.2816 10.6506 96.2934 12.3563L115.307 44.3909L27.5965 60.8493C27.496 59.8648 27.1541 58.9235 26.5842 58.0972L5.64315 27.7316C4.28743 25.7668 4.54299 23.0344 6.39043 21.37L12.0109 16.3102C12.7054 15.6861 13.5599 15.2766 14.4814 15.1259C105.661 0.319986 99.6833 1.25597 100.283 1.25597C102.115 1.25597 103.845 2.30869 104.659 3.99168L123.435 42.7545C124.061 44.0477 124.084 45.5404 123.498 46.85Z" fill="black"/>
</svg>
