<svg width="125" height="125" viewBox="0 0 125 125" fill="none" xmlns="http://www.w3.org/2000/svg">
<path d="M123.735 107.061C120.187 98.4837 110.284 90.1589 102.76 87.0659C95.4106 84.0474 87.2235 84.6025 81.2828 88.4941C73.811 82.6783 66.5099 75.7245 59.4653 67.7097C64.746 63.4404 70.4672 59.336 76.4873 55.501C83.3423 60.0245 92.4474 60.2812 100.254 56.9567C115.943 50.2742 136.75 25.1599 115.876 16.6687C107.299 13.1799 93.2137 13.585 83.8095 17.5907C74.0757 21.7363 67.9811 30.6159 67.8769 39.4619C61.3349 44.0658 55.0288 49.2587 49.1172 54.9027C48.1604 53.6164 47.2218 52.3252 46.318 51.052C50.8899 43.3278 50.6658 33.3707 46.6155 25.0499C38.4824 8.34087 9.98006 -12.9956 1.87689 10.21C-1.45513 19.7518 -0.239844 35.0858 4.64401 45.1192C9.83102 55.7756 19.9898 61.6496 29.3713 61.2764C31.4399 63.9241 33.6232 66.5534 35.8678 69.1047C33.4295 72.0473 31.1282 75.0324 29.02 77.9884C21.3298 77.1852 13.3564 82.2117 9.53829 90.321C4.12478 101.812 4.26767 124.566 17.001 124.566C25.9767 124.566 37.1149 113.669 41.0151 105.389C44.1144 98.8099 43.9905 91.3026 40.7175 85.6871C42.4048 83.7304 44.2151 81.7611 46.1089 79.8206C56.5446 89.8757 66.5134 97.0521 73.584 101.578C73.1069 110.007 79.0245 118.436 88.0828 122.159C102.435 128.056 131.385 125.56 123.735 107.061ZM84.228 18.5733C93.2738 14.7205 107.015 14.2181 115.473 17.6583C126.843 22.2828 125.19 32.1936 117.558 41.8756C112.764 47.9574 105.973 53.3594 99.8353 55.9735C93.4885 58.6765 86.4818 58.8576 80.6118 56.4695C75.8268 54.5232 72.1654 50.994 70.3027 46.5322C65.9971 36.2198 72.244 23.6775 84.228 18.5733ZM67.9047 40.7559C68.2111 46.3164 70.9117 51.3896 75.5445 54.8375C69.6144 58.6335 63.9741 62.688 58.762 66.9041C55.6802 63.3582 52.6562 59.6148 49.7617 55.7633C55.4839 50.291 61.582 45.2496 67.9047 40.7559ZM5.60476 44.6518C0.829877 34.8424 -0.36431 19.8687 2.88545 10.5623C7.32005 -2.13705 18.2753 -0.877157 29.278 6.93114C36.186 11.8337 42.4611 18.9558 45.6551 25.5173C51.7801 38.101 48.2154 52.9521 36.952 58.3357C25.6234 63.7505 11.6796 57.1319 5.60476 44.6518ZM40.0487 104.934C35.5153 114.557 21.6543 126.632 13.5509 122.752C9.95923 121.032 7.67716 116.046 7.2904 109.074C6.93917 102.742 8.17075 95.731 10.5049 90.7761C14.0308 83.287 21.2478 78.5624 28.3039 78.9999C24.8509 83.9323 23.1223 87.0985 23.1044 87.1316C23.0694 87.1962 23.048 87.2676 23.0416 87.3405C22.5875 92.6148 23.4604 95.9565 25.6359 97.2724C26.3704 97.7169 27.172 97.882 27.9581 97.882C30.1787 97.882 32.277 96.563 32.3951 96.4877C32.4568 96.4482 32.5099 96.3964 32.5508 96.3355C34.7567 93.0515 37.2557 89.7636 39.9793 86.5501C42.8962 91.8282 42.94 98.796 40.0487 104.934ZM31.7303 95.6416C31.1779 95.9666 28.2201 97.5898 26.1864 96.3568C24.4294 95.2917 23.7075 92.2454 24.0966 87.5451C27.1987 81.9782 32.4811 74.8775 36.5842 69.9154C39.3705 73.0444 42.3121 76.1216 45.3423 79.0768C40.2808 84.2633 35.683 89.7727 31.7303 95.6416ZM46.4702 78.6855C46.4563 78.6577 38.7963 71.5035 30.6621 61.1859C36.6494 60.5788 42.1262 57.4142 45.7034 52.0301C58.1741 69.5163 74.1355 86.4764 92.6856 97.6525C93.0596 98.2185 95.0329 101.4 93.7797 103.724C92.7035 105.72 89.4001 106.685 84.2224 106.517C82.7529 105.79 65.3392 96.9741 46.4702 78.6855ZM123.285 116.059C121.598 120.091 116.267 122.867 108.66 123.676C101.76 124.408 94.0318 123.449 88.4888 121.172C80.0637 117.709 74.4822 110.018 74.6259 102.24C80.2398 105.771 83.7791 107.491 83.8586 107.529C83.9251 107.561 83.9973 107.579 84.0707 107.581C87.7083 107.71 93.0072 107.415 94.7215 104.228C96.4074 101.095 93.6159 97.1138 93.4963 96.9458C93.4538 96.886 93.3993 96.8357 93.3363 96.7978C89.5839 94.5422 85.8616 92.0013 82.1799 89.1853C87.8026 85.6674 95.4552 85.2208 102.353 88.0539C113.244 92.5304 127.076 107.002 123.285 116.059Z" fill="black"/>
</svg>
